<?xml version="1.0" standalone="no"?>
<!DOCTYPE svg PUBLIC "-//W3C//DTD SVG 1.1//EN" "http://www.w3.org/Graphics/SVG/1.1/DTD/svg11.dtd" >
<svg xmlns="http://www.w3.org/2000/svg">
<metadata>Generated by IcoMoon</metadata>
<defs>
<font id="ui-icons" horiz-adv-x="1024">
<font-face units-per-em="1024" ascent="960" descent="-64" />
<missing-glyph horiz-adv-x="1024" />
<glyph unicode="&#x20;" horiz-adv-x="512" d="" />
<glyph unicode="&#xe900;" glyph-name="check-round" d="M512 960c-282.743 0-512-229.257-512-512s229.257-512 512-512 512 229.257 512 512-229.257 512-512 512zM733.143 615.2l-240.686-333.714c-6.675-9.236-17.415-15.176-29.543-15.176s-22.868 5.94-29.47 15.070l-0.073 0.106-142.514 197.486c-4.343 6.057 0 14.514 7.429 14.514h53.6c11.657 0 22.743-5.6 29.6-15.2l81.371-112.914 179.657 249.143c6.857 9.486 17.829 15.2 29.6 15.2h53.6c7.429 0 11.771-8.457 7.429-14.514z" />
<glyph unicode="&#xe901;" glyph-name="check" d="M1000.424 779.89c31.035-30.483 31.484-80.355 1-111.392l-541.535-551.385c-14.811-15.080-35.061-23.575-56.198-23.575s-41.387 8.495-56.198 23.575l-324.923 330.831c-30.483 31.037-30.034 80.909 1.004 111.392s80.909 30.033 111.392-1.004l268.725-273.611 485.344 494.165c30.476 31.037 80.352 31.486 111.388 1.004z" />
<glyph unicode="&#xe902;" glyph-name="chevron-down" d="M824.185 806.731c18.176-18.177 18.176-47.648 0-65.825l-279.273-279.273c-8.727-8.729-20.568-13.633-32.912-13.633s-24.185 4.904-32.912 13.633l-279.273 279.273c-18.177 18.177-18.177 47.648 0 65.825s47.648 18.177 65.826 0l246.36-246.36 246.36 246.36c18.176 18.177 47.649 18.177 65.825 0z" />
<glyph unicode="&#xe903;" glyph-name="chevron-left" d="M803.829 902.414c-31.033 35.467-84.944 39.062-120.411 8.027l-455.111-398.222c-18.519-16.204-29.141-39.613-29.141-64.22s10.622-48.016 29.141-64.221l455.111-398.222c35.467-31.033 89.378-27.438 120.411 8.027 31.033 35.47 27.443 89.378-8.027 120.411l-381.716 334.005 381.716 334.002c35.47 31.035 39.060 84.945 8.027 120.413z" />
<glyph unicode="&#xe904;" glyph-name="chevron-right" d="M220.281 902.414c31.034 35.467 84.945 39.062 120.412 8.027l455.114-398.222c18.517-16.204 29.138-39.613 29.138-64.22s-10.621-48.016-29.138-64.221l-455.114-398.222c-35.467-31.033-89.378-27.438-120.412 8.027-31.034 35.47-27.44 89.378 8.027 120.411l381.717 334.005-381.717 334.002c-35.468 31.035-39.062 84.945-8.027 120.413z" />
<glyph unicode="&#xe905;" glyph-name="chevron-up" d="M1002.576 176.851c28.562 28.564 28.562 74.876 0 103.44l-438.856 438.857c-13.717 13.717-32.321 21.423-51.72 21.423s-38.003-7.706-51.72-21.423l-438.857-438.857c-28.564-28.564-28.564-74.876 0-103.44s74.875-28.564 103.44 0l387.137 387.138 387.138-387.138c28.562-28.564 74.876-28.564 103.439 0z" />
<glyph unicode="&#xe906;" glyph-name="close-round" d="M512 960c-282.743 0-512-229.257-512-512s229.257-512 512-512 512 229.257 512 512-229.257 512-512 512zM701.029 253.486l-75.429 0.343-113.6 135.429-113.486-135.314-75.543-0.343c-5.029 0-9.143 4-9.143 9.143 0 2.171 0.8 4.229 2.171 5.943l148.686 177.143-148.686 177.029c-1.33 1.604-2.145 3.676-2.171 5.937v0.006c0 5.029 4.114 9.143 9.143 9.143l75.543-0.343 113.486-135.429 113.486 135.314 75.429 0.343c5.029 0 9.143-4 9.143-9.143 0-2.171-0.8-4.229-2.171-5.943l-148.457-177.029 148.571-177.143c1.371-1.714 2.171-3.771 2.171-5.943 0-5.029-4.114-9.143-9.143-9.143z" />
<glyph unicode="&#xe907;" glyph-name="email" d="M153.6 857.6c-22.511 0-43.749-5.325-63.1-14.2l404.6-389.1c8.216-7.898 23.021-7.95 31.5 0.102l408.701 388.1c-19.825 9.408-41.677 15.098-64.901 15.098h-716.8zM16.9 772.1c-10.423-20.663-16.9-43.576-16.9-68.1v-512c0-84.207 69.391-153.6 153.6-153.6h716.8c84.207 0 153.6 69.393 153.6 153.6v512c0 23.794-6.048 46.103-15.899 66.3l-411.001-390.2c-48.233-45.783-124.773-45.874-172.9 0.399l-407.3 391.601z" />
<glyph unicode="&#xe908;" glyph-name="exclamation" d="M526.49 142.555c-18.57-0.11-37.347-0.976-56.332-2.597-4.815-0.399-9.7-0.867-14.653-1.357-12.989-1.298-25.114-7.197-34.248-16.666s-14.693-21.903-15.702-35.12v-0.468c-1.048-13.623-1.217-27.301-0.507-40.945 0.768-13.469 2.377-26.873 4.815-40.13l0.208-1.079c2.258-12.197 8.411-23.296 17.508-31.583 9.096-8.283 20.628-13.294 32.81-14.256 5.046-0.421 10.022-0.772 14.907-1.097 17.787-1.126 35.297-1.631 52.53-1.521s34.736 0.889 52.507 2.341c4.884 0.388 9.854 0.827 14.907 1.309 12.172 1.141 23.635 6.323 32.618 14.746 8.982 8.419 14.984 19.61 17.079 31.843 0 0.351 0 0.702 0.161 1.075 2.263 13.286 3.687 26.704 4.263 40.177 0.52 13.648 0.159 27.323-1.083 40.923v0.446c-1.197 13.206-6.932 25.563-16.199 34.904-9.267 9.344-21.476 15.078-34.488 16.197-4.977 0.424-9.869 0.805-14.676 1.148-19.031 1.262-37.839 1.832-56.424 1.708zM677.123 878.715c0.835 14.771-4.058 29.286-13.631 40.439s-23.065 18.055-37.586 19.229c-9.677 0.796-19.253 1.381-28.731 1.755-26.91 0.998-52.33 1.427-76.261 1.287s-49.036-0.92-75.317-2.34c-9.876-0.546-20.006-1.326-30.389-2.34-14.368-1.512-27.588-8.66-36.844-19.922s-13.818-25.75-12.714-40.377l41.771-578.754c0.942-13.188 6.415-25.622 15.465-35.131 9.050-9.505 21.1-15.484 34.047-16.885 6.036-0.625 11.796-1.156 17.28-1.591 18.155-1.419 35.35-2.066 51.586-1.942 22.909 0.391 45.782 2.022 68.519 4.89 12.978 1.543 25.009 7.676 33.981 17.324s14.316 22.192 15.093 35.441l33.73 578.917z" />
<glyph unicode="&#xe909;" glyph-name="eye-disabled" d="M663.104 161.152c3.072-3.072 1.824-8.448-2.336-9.792-246.4-78.912-513.024 48.096-595.008 286.144-2.304 6.72-2.304 14.208 0 20.96 23.776 69.024 63.68 129.504 114.816 178.336 1.952 1.856 5.056 1.792 6.944-0.096l137.664-137.664c0.96-0.96 1.312-2.304 0.992-3.616-35.712-139.040 94.336-268.64 232.832-233.408 1.568 0.416 3.040 0.128 4.192-1.024 11.456-11.424 78.24-78.176 99.904-99.84zM789.76 215.488c76.992 54.144 136.992 130.528 168.512 222.112 2.304 6.72 2.304 14.080 0 20.8-63.744 185.184-243.072 309.6-446.272 309.6-79.328 0-154.912-19.104-221.472-53.28l-171.904 171.904c-12.512 12.512-32.736 12.512-45.248 0s-12.512-32.736 0-45.248l832-832c12.512-12.512 32.736-12.512 45.248 0s12.512 32.736 0 45.248l-160.864 160.864zM512 640c105.888 0 192-86.112 192-192 0-41.408-13.312-79.68-35.68-111.072l-267.392 267.392c31.392 22.368 69.664 35.68 111.072 35.68z" />
<glyph unicode="&#xe90a;" glyph-name="eye" d="M958.272 458.4c-63.744 185.184-243.072 309.6-446.272 309.6s-382.528-124.416-446.272-309.6c-2.304-6.72-2.304-14.080 0-20.8 63.744-185.184 243.072-309.6 446.272-309.6s382.528 124.416 446.272 309.6c2.304 6.72 2.304 14.080 0 20.8zM512 256c-105.888 0-192 86.112-192 192s86.112 192 192 192 192-86.112 192-192-86.112-192-192-192z" />
<glyph unicode="&#xe90b;" glyph-name="headphones-round" d="M975.94 364.425c0 59.273 2.927 119.403-6.293 178.244-15.185 96.598-64.538 187.924-135.91 255.263-35.686 33.669-77.013 62.175-121.702 82.721-48.158 22.052-98.598 35.713-151.424 40.984-100.331 10.219-204.462-14.522-289.501-68.307-85.148-53.893-150.121-134.14-185.481-227.833-17.789-47.116-27.009-97.672-27.985-147.908-0.434-18.074-0.108-36.036-0.108-54.11v-196.314c0-16.887 14.969-33.024 32.541-32.269 7.159 0.32 62.478-0.649 76.471-0.649h63.888c0.217 0 0.543 0 0.759 0 30.588 0.862 58.899 22.805 63.888 53.572 1.41 8.819 1.085 17.425 1.085 26.355v194.052c0 9.899 0.326 19.793-2.386 29.474-7.81 28.399-34.493 47.548-63.779 47.87s-58.573 0-87.751 0c-4.122 0-8.244-0.323-12.257-0.968 5.315 25.924 13.125 51.311 23.212 75.837-0.542-1.291-1.085-2.582-1.735-3.872 1.085 2.582 2.169 5.164 3.254 7.745-0.542-1.291-1.085-2.581-1.627-3.765 8.027 18.287 17.355 36.036 27.876 53.032 5.424 8.82 11.281 17.534 17.355 25.924 1.627 2.259 3.363 4.625 5.098 6.777 0.217 0.323 0.542 0.646 0.759 1.076-0.217-0.323-0.434-0.538-0.651-0.86-0.651-0.753-0.868-1.076-0.868-1.076 0.217 0.323 3.254 4.303 3.363 4.303 0 0-0.217-0.323-0.868-1.076-0.325-0.431-0.542-0.753-0.867-1.076 3.145 3.872 6.291 7.852 9.545 11.617 13.667 15.921 28.419 30.873 44.256 44.749 3.905 3.442 7.918 6.777 11.931 10.004 1.627 1.291 3.146 2.582 4.773 3.872-0.434-0.323-0.868-0.646-1.302-0.968 0.542 0.43 1.193 0.861 1.736 1.291 0.108 0.108 0.217 0.215 0.434 0.323 0.868 0.753 2.495 1.829 2.82 2.151h0.108c8.244 6.024 16.596 11.833 25.273 17.319 18.874 11.94 38.723 22.374 59.332 31.303-1.193-0.538-2.386-0.968-3.688-1.506 2.603 1.076 5.206 2.151 7.81 3.227-1.41-0.538-2.712-1.184-4.122-1.721 32.215 13.123 65.949 22.267 100.443 27.215-1.412-0.108-2.931-0.323-4.339-0.538 2.927 0.43 5.747 0.753 8.678 1.183-1.412-0.215-2.931-0.431-4.339-0.646 35.145 4.303 70.72 4.303 105.865 0-1.408 0.215-2.927 0.431-4.339 0.646 2.931-0.431 5.751-0.753 8.678-1.183-1.412 0.215-2.927 0.43-4.339 0.538 34.492-4.948 68.117-14.092 100.442-27.215-1.301 0.538-2.709 1.183-4.011 1.721 2.603-1.076 5.205-2.152 7.808-3.227-1.195 0.538-2.496 0.968-3.686 1.506 18.436-7.96 36.228-17.104 53.257-27.538 8.896-5.486 17.57-11.187 26.142-17.211 2.278-1.614 4.557-3.334 6.831-5.056 0.435-0.323 0.87-0.646 1.301-0.968-0.324 0.323-0.755 0.538-1.084 0.861-0.649 0.538-0.977 0.861-1.084 0.861 0.324-0.215 4.015-3.012 4.339-3.335-0.111 0-0.435 0.323-1.084 0.861-0.329 0.215-0.653 0.538-0.977 0.753 3.904-3.12 7.808-6.132 11.605-9.359 16.055-13.553 31.13-28.183 45.124-43.888 3.469-3.872 6.831-7.853 10.086-11.833 1.301-1.614 2.603-3.119 3.797-4.733-0.324 0.43-0.653 0.861-0.977 1.291 0.435-0.538 0.866-1.076 1.301-1.721 0.111-0.108 0.218-0.215 0.324-0.43 0.546-0.646 1.301-1.614 1.737-2.259 0.218-0.215 0.324-0.431 0.435-0.538 0 0 0 0 0.107-0.108 6.076-8.175 11.934-16.566 17.463-25.064 12.151-18.825 22.673-38.618 31.676-59.163-0.546 1.291-1.088 2.689-1.63 3.98 1.084-2.582 2.172-5.164 3.255-7.745-0.542 1.291-1.084 2.474-1.626 3.765 10.086-24.419 17.788-49.697 23.104-75.514-3.255 0.538-6.511 0.753-9.873 0.86-29.286 0.323-58.573 0-87.753 0-24.619 0-48.051-11.617-60.198-33.563-6.942-12.476-8.243-25.707-8.243-39.582v-193.306c0-6.562-0.111-13.124 0-19.686 0.324-29.363 20.608-56.256 49.677-63.356 13.777-3.337 29.073-1.937 43.063-1.937h63.889c0.218 0 0.542 0 0.759 0 3.904 0.107 7.701 0.538 11.499 1.289-1.847-7.1-4.126-14.195-6.835-20.975-4.122-9.143-9.114-18.069-14.754-26.462-1.626-2.368-3.251-4.625-4.881-6.882 0.435 0.538 0.759 0.964 1.195 1.506 3.58 4.301-4.77-6.349-1.626-2.044 0.107 0.213 0.324 0.427 0.431 0.644-0.542-0.644-0.973-1.186-1.515-1.83-3.58-4.301-7.488-8.499-11.499-12.476-4.015-3.981-8.243-7.748-12.582-11.405-0.542-0.431-1.084-0.862-1.63-1.289 0.111 0.107 0.329 0.213 0.435 0.32 4.774 3.337-6.507-5.269-2.061-1.613 0.542 0.431 1.084 0.862 1.626 1.293-2.167-1.506-4.335-3.119-6.507-4.518-8.567-5.7-17.681-10.65-27.008-14.955 1.084 0.431 2.167 0.862 3.255 1.293-2.607-1.075-5.21-2.15-7.812-3.226 1.519 0.644 3.038 1.289 4.45 1.933-12.476-4.838-25.382-8.282-38.507-10.432 1.301 0.107 2.603 0.32 4.011 0.431-2.927-0.431-5.747-0.755-8.678-1.186 1.63 0.218 3.149 0.431 4.668 0.649-20.177-2.155-41.003-1.079-61.18-1.079h-99.9c-1.519 3.443-3.362 6.78-5.423 9.899-14.861 22.805-40.132 36.467-67.465 36.681-12.911 0.107-25.924 0-38.835 0-13.884 0-27.657 0-41.54 0-26.251-0.107-50.006-12.369-65.517-33.237-17.138-23.023-18.765-54.217-6.833-79.817 12.040-25.924 38.723-42.598 67.141-44.535 12.151-0.862 24.516-0.213 36.663-0.213h49.246c0.218 0 0.542 0 0.759 0 28.416 0.538 55.317 15.919 68.983 40.875 0.977 1.83 1.954 3.763 2.82 5.7 46.643 0 93.175 0 139.819 0 21.585 0 43.605 2.906 64.213 9.25 27.226 8.393 51.413 21.837 73.758 39.373 40.461 31.731 68.877 80.785 76.254 131.452 3.362 23.019 2.927 45.717 2.927 68.843v96.597h-0.431z" />
<glyph unicode="&#xe90c;" glyph-name="headphones" d="M512.012 887.929c-146.24 0-264.797-122.089-264.797-272.684v-90.895h-8.827c-63.111 0-114.745-53.172-114.745-118.163v-72.716c0-64.99 51.634-118.159 114.745-118.159h88.266c13.864 0 26.478 12.99 26.48 27.265v254.506c-0.001 14.277-12.616 27.268-26.48 27.268h-26.48v90.895c0 121.326 94.021 218.148 211.838 218.148s211.837-96.822 211.837-218.148v-90.895h-26.479c-16.895-0.909-26.19-15.777-26.48-27.268v-254.506c0.001-14.275 12.615-27.265 26.48-27.265h22.066c-5.317-16.589-15.688-31.934-32.824-45.451-23.126-18.242-58.949-32.673-109.504-35.789-10.736 26.178-35.992 44.88-65.096 44.88-38.685 0-70.613-32.878-70.613-72.719 0-39.834 31.928-72.719 70.613-72.719 29.618 0 55.248 19.105 65.647 46.021 59.958 3.24 107.312 20.114 141.225 46.863 29.931 23.611 48.597 55.201 55.165 88.912h11.586c63.108 0 114.747 53.169 114.747 118.159v72.716c0 64.991-51.639 118.163-114.747 118.163h-8.828v90.895c0 150.595-118.556 272.684-264.795 272.684z" />
<glyph unicode="&#xe90d;" glyph-name="key" d="M1024 608.749c0-193.594-157.512-351.254-351.395-351.254-28.251 0-55.728 3.864-82.47 10.438v-31.689c0-21.251-17.377-38.639-38.7-38.639h-111.843v-95.444c0-21.258-17.415-38.646-38.7-38.646h-89.010v-88.876c0-21.251-17.028-38.639-38.7-38.639h-234.483c-21.672 0-38.7 17.388-38.7 38.639v145.681c0 10.049 3.909 19.709 10.836 27.047l332.858 337.729c-15.131 39.414-22.871 80.761-22.871 123.653 0 193.594 157.895 351.251 351.82 351.251 193.845 0 351.357-157.657 351.357-351.251zM879.65 674.826c0 76.897-62.696 139.496-140.097 139.496-77.010 0-139.317-62.599-139.317-139.496s62.268-139.495 139.317-139.495c77.401 0 140.097 62.599 140.097 139.495z" />
<glyph unicode="&#xe90e;" glyph-name="phone-round" d="M512 960c-282.408 0-512-229.592-512-512 0-282.406 229.592-512 512-512 282.406 0 512 229.594 512 512 0 282.408-229.594 512-512 512zM793.334 258.294c-9.708-23.716-26.952-47.432-37.731-58.211-61.44-61.44-226.357-6.465-362.171 129.349s-190.788 299.654-129.348 362.172c10.779 10.779 35.57 28.026 58.206 37.726 17.246 7.546 37.726 2.156 49.583-12.934l67.907-86.232c14.013-17.246 11.857-43.116-5.389-58.206s-29.103-25.87-32.337-29.103c-25.869-25.869 11.857-80.842 68.986-137.97s111.023-95.932 137.97-68.986c3.234 3.234 14.013 15.091 29.103 32.337s39.882 19.402 58.206 5.39l86.234-67.908c14.008-8.623 18.323-29.101 10.779-47.424z" />
<glyph unicode="&#xe90f;" glyph-name="question" d="M408.089 445.607c0.273 34.871 25.664 64.044 59.197 73.602 2.213 0.631 4.422 1.277 6.627 1.935 22.026 6.393 43.121 15.684 62.739 27.638 18.612 11.271 34.693 26.327 47.213 44.213 12.339 17.712 18.616 39.831 18.828 66.357 0.28 39.268-13.554 69.299-41.497 90.093s-65.023 31.348-111.235 31.663c-19.024 0.132-36.019-0.431-50.985-1.69-13.977-1.117-27.849-3.302-41.498-6.537-12.715-3.131-25.653-6.661-38.812-10.687-24.005-7.345-50.609 2.453-60.007 25.731-4.561 11.296-8.654 22.785-12.269 34.438-2.607 8.393-4.877 16.88-6.807 25.442-7.107 31.53 13.509 61.536 44.443 70.9 4.544 1.376 9.002 2.698 13.373 3.965 19.993 5.799 39.51 10.455 58.55 13.967 18.894 3.493 37.975 5.867 57.145 7.108 19.024 1.243 39.411 1.781 61.162 1.616 108.737-0.795 190.568-26.303 245.485-76.523 54.921-50.22 82.026-118.74 81.319-205.56-0.294-42.946-8.714-79.896-25.259-110.845-15.319-29.375-35.516-55.887-59.706-78.387-21.654-20.18-45.759-37.506-71.735-51.569-5.789-3.072-11.322-5.956-16.599-8.653-25.87-13.216-43.544-39.294-43.756-68.345l-0.56-76.769c-30.127-5.1-60.63-7.595-91.177-7.458-9 0.031-17.991 0.341-26.962 0.932-34.313 2.263-58.401 32.703-58.132 67.089l0.912 116.333zM391.016-39.619c-5.122 33.126-7.594 66.611-7.393 100.134 0.338 33.976 3.313 67.871 8.896 101.376 32.843 5.164 66.044 7.66 99.283 7.458 33.687-0.328 67.296-3.328 100.517-8.974 5.052-33.123 7.523-66.594 7.393-100.11-0.259-33.987-3.232-67.895-8.899-101.4-32.851-5.086-66.046-7.578-99.282-7.455-33.69 0.256-67.304 3.256-100.515 8.97z" />
<glyph unicode="&#xe910;" glyph-name="telegram-round" d="M1024 448c0-282.752-229.248-512-512-512s-512 229.248-512 512c0 282.752 229.248 512 512 512s512-229.248 512-512zM530.347 582.016c-49.792-20.693-149.334-63.573-298.582-128.597-24.234-9.643-36.949-19.072-38.101-28.288-1.963-15.616 17.579-21.76 44.117-30.080 3.627-1.152 7.382-2.304 11.222-3.584 26.154-8.491 61.312-18.432 79.573-18.816 16.597-0.342 35.115 6.485 55.552 20.48 139.435 94.165 211.413 141.738 215.936 142.762 3.2 0.726 7.637 1.664 10.624-1.024 2.987-2.645 2.688-7.68 2.389-9.045-1.962-8.235-78.506-79.445-118.186-116.309-12.374-11.478-21.12-19.627-22.912-21.504-4.011-4.139-8.107-8.107-12.032-11.904-24.32-23.382-42.496-40.96 1.024-69.63 20.906-13.786 37.632-25.178 54.314-36.525 18.219-12.416 36.395-24.787 59.947-40.237 5.973-3.923 11.691-7.974 17.28-11.942 21.205-15.149 40.277-28.717 63.827-26.586 13.658 1.28 27.821 14.125 34.989 52.48 16.941 90.712 50.304 287.149 58.029 368.13 0.467 6.724 0.179 13.479-0.858 20.139-0.621 5.379-3.238 10.328-7.334 13.867-6.106 4.992-15.578 6.058-19.84 5.973-19.245-0.341-48.768-10.624-190.978-69.76z" />
<glyph unicode="&#xe911;" glyph-name="telegram" d="M883.617 804.086c0 0 82.878 32.32 75.952-46.166-2.289-32.32-23.003-145.45-39.131-267.797l-55.252-362.453c0 0-4.608-53.102-46.058-62.34-41.428-9.216-103.594 32.322-115.114 41.56-9.216 6.934-172.672 110.826-230.229 161.6-16.128 13.866-34.56 41.558 2.304 73.877l241.728 230.87c27.627 27.69 55.253 92.33-59.862 13.845l-322.346-219.306c0 0-36.843-23.104-105.898-2.325l-149.675 46.187c0 0-55.253 34.624 39.147 69.248 230.251 108.501 513.451 219.306 764.392 323.2h0.044z" />
<glyph unicode="&#xe912;" glyph-name="user-card" d="M277.683 694.306h-93.082v72.527c0.027 24.064 9.152 47.134 25.372 64.15s38.212 26.588 61.15 26.617h666.356c22.938-0.029 44.926-9.601 61.146-26.617s25.347-40.086 25.375-64.15v-437.78c-0.027-24.064-9.155-47.135-25.375-64.15s-38.209-26.589-61.146-26.617h-63.618v97.539h56.743v424.236h-652.922v-65.754zM0 114.203v437.78c0 20.105 7.613 39.385 21.164 53.601s31.93 22.202 51.094 22.202h666.354c19.162 0 37.547-7.987 51.098-22.202s21.163-33.496 21.163-53.601v-437.78c0-20.105-7.612-39.383-21.163-53.603-13.551-14.213-31.935-22.2-51.098-22.2h-666.354c-9.489 0-18.885 1.959-27.652 5.769s-16.732 9.393-23.442 16.432c-13.551 14.22-21.164 33.498-21.164 53.603zM725.497 199.946c0 2.723-1.038 5.334-2.867 7.26-1.836 1.926-4.328 3.007-6.922 3.007h-121.298c-2.596 0-5.085-1.081-6.921-3.007s-2.867-4.537-2.867-7.26v-19.661c0-2.723 1.032-5.334 2.867-7.257 1.836-1.932 4.325-3.011 6.921-3.011h121.298c2.594 0 5.086 1.079 6.922 3.011 1.83 1.922 2.867 4.534 2.867 7.257v19.661zM463.325 466.241c0-2.723 1.032-5.334 2.867-7.26s4.325-3.007 6.92-3.007h242.596c2.594 0 5.086 1.082 6.922 3.007 1.83 1.926 2.867 4.537 2.867 7.26v19.661c0 2.723-1.038 5.334-2.867 7.26-1.836 1.925-4.328 3.007-6.922 3.007h-242.596c-2.595 0-5.085-1.082-6.92-3.007s-2.867-4.537-2.867-7.26v-19.661zM463.325 370.886c0-2.723 1.032-5.334 2.867-7.26s4.325-3.007 6.92-3.007h242.596c2.594 0 5.086 1.082 6.922 3.007 1.83 1.926 2.867 4.537 2.867 7.26v19.661c0 2.723-1.038 5.334-2.867 7.26-1.836 1.925-4.328 3.007-6.922 3.007h-242.596c-2.595 0-5.085-1.082-6.92-3.007s-2.867-4.537-2.867-7.26v-19.661zM463.325 275.531c0-2.723 1.032-5.334 2.867-7.26s4.325-3.007 6.92-3.007h242.596c2.594 0 5.086 1.082 6.922 3.007 1.83 1.926 2.867 4.537 2.867 7.26v19.552c0 2.723-1.038 5.334-2.867 7.26-1.836 1.926-4.328 3.007-6.922 3.007h-242.596c-2.595 0-5.085-1.081-6.92-3.007s-2.867-4.537-2.867-7.26v-19.552zM87.251 158.44c0-3.884 1.47-7.605 4.086-10.349s6.165-4.287 9.865-4.287h315.061c3.7 0 7.249 1.543 9.865 4.287s4.086 6.465 4.086 10.349v36.045c-0.010 5.357-1.155 10.644-3.352 15.48s-5.39 9.099-9.35 12.482c-30.993 26.158-64.573 48.751-100.162 67.393-0.529 0.267-0.976 0.685-1.29 1.207s-0.479 1.126-0.48 1.742v35.062c4.856 8.501 8.174 17.869 9.787 27.634 3.749 0 8.642 5.789 13.952 25.45 7.288 26.87 0 30.802-6.975 30.147 1.214 3.556 2.154 7.209 2.811 10.923 11.036 69.687-21.136 72.090-21.136 72.090-4.822 8.295-11.742 15.025-19.991 19.442-12.182 7.403-26.296 10.54-40.294 8.957-5.459-0.266-10.856-1.333-16.034-3.168-6.296-2.279-12.255-5.478-17.7-9.503-6.672-4.428-12.793-9.712-18.22-15.729-9.621-9.91-16.433-22.425-19.679-36.154-2.55-11.608-2.55-23.672 0-35.28 0.657-3.714 1.597-7.367 2.811-10.923-6.455 0.655-14.16-3.277-6.975-30.147 5.31-19.552 10.411-25.122 13.952-25.45 1.604-9.989 4.958-19.582 9.891-28.29v-34.953c-0.001-0.616-0.167-1.22-0.481-1.742s-0.76-0.94-1.29-1.207c-35.589-18.642-69.168-41.235-100.162-67.393-3.959-3.383-7.153-7.646-9.35-12.482s-3.342-10.123-3.353-15.48l0.104-36.154z" />
<glyph unicode="&#xe913;" glyph-name="user" d="M793.621 685.267c0 151.103-126.722 274.733-281.603 274.733s-281.602-123.63-281.602-274.733c0-151.103 126.721-274.733 281.602-274.733s281.603 123.63 281.603 274.733zM623.365 353.086c-35.841-11.238-72.961-17.483-111.361-17.483s-75.521 6.245-111.361 17.483c-112.641 36.215-238.083 6.244-312.323-82.42-55.041-66.185-88.321-151.103-88.321-242.267 0-51.2 42.24-92.407 94.721-92.407h834.568c52.48 0 94.72 41.207 94.72 92.407 0 91.164-33.28 176.082-88.32 242.267-75.52 88.664-199.683 118.636-312.323 82.42z" />
</font>
</defs>
</svg>
